<?xml version="1.0" encoding="UTF-8" standalone="no"?>


<svg xmlns:dc="http://purl.org/dc/elements/1.1/" xmlns:cc="http://creativecommons.org/ns#" xmlns:rdf="http://www.w3.org/1999/02/22-rdf-syntax-ns#" xmlns:svg="http://www.w3.org/2000/svg" xmlns="http://www.w3.org/2000/svg" xmlns:sodipodi="http://sodipodi.sourceforge.net/DTD/sodipodi-0.dtd" xmlns:inkscape="http://www.inkscape.org/namespaces/inkscape" id="svg2" version="1.1" xmlns:inkscape="http://www.inkscape.org/namespaces/inkscape" inkscape:version="0.91 r13725" xml:space="preserve" width="239.3175" height="186.23125" viewBox="0 0 239.3175 186.23125" xmlns:sodipodi-0.dtd="http://sodipodi.sourceforge.net/DTD/sodipodi-0.dtd" xmlns:sodipodi-0.dtd="http://sodipodi.sourceforge.net/DTD/sodipodi-0.dtd" sodipodi-0.dtd:docname="Vector Smart Object2.ai"><metadata id="metadata8"><RDF><Work xmlns:_="http://www.w3.org/1999/02/22-rdf-syntax-ns#" xmlns:_="http://www.w3.org/1999/02/22-rdf-syntax-ns#" _:about=""><format>image/svg+xml</format><type _:resource="http://purl.org/dc/dcmitype/StillImage"></type><title></title></Work></RDF></metadata><defs id="defs6"><clipPath clipPathUnits="userSpaceOnUse" id="clipPath24"><path d="m 0,148.985 191.454,0 L 191.454,0 0,0 0,148.985 Z" id="path26" inkscape:connector-curvature="0"></path></clipPath></defs><namedview pagecolor="#ffffff" bordercolor="#666666" borderopacity="1" objecttolerance="10" gridtolerance="10" guidetolerance="10" inkscape:pageopacity="0" inkscape:pageshadow="2" inkscape:window-width="1301" inkscape:window-height="996" id="namedview4" showgrid="false" inkscape:zoom="1.2672417" inkscape:cx="119.65875" inkscape:cy="93.115623" inkscape:window-x="0" inkscape:window-y="0" inkscape:window-maximized="0" inkscape:current-layer="g10"></namedview><g id="g10" inkscape:groupmode="layer" inkscape:label="Vector Smart Object2" transform="matrix(1.25,0,0,-1.25,0,186.23125)"><g id="g12" transform="translate(11.025,14.5602)"><path d="m 0,0 -5.07,-7.47 -5.07,7.47 -0.885,0 0,-12.63 0.903,0 0,10.971 4.997,-7.273 0.072,0 4.999,7.273 0,-10.971 0.938,0 L 0.884,0 0,0 Z" style="fill:#ffffff;fill-opacity:1;fill-rule:nonzero;stroke:none" id="path14" inkscape:connector-curvature="0"></path></g><g id="g16" transform="translate(16.4269,14.56)"><path d="m 0,0 8.986,0 0,-0.866 -8.046,0 0,-4.96 7.235,0 0,-0.868 -7.235,0 0,-5.07 8.136,0 0,-0.866 L 0,-12.63 0,0 Z" style="fill:#ffffff;fill-opacity:1;fill-rule:nonzero;stroke:none" id="path18" inkscape:connector-curvature="0"></path></g><g id="g20"><g id="g22" clip-path="url(#clipPath24)"><g id="g28" transform="translate(30.5462,13.6944)"><path d="m 0,0 0,-10.898 3.265,0 c 3.519,0 5.738,2.401 5.738,5.414 l 0,0.035 C 9.003,-2.454 6.784,0 3.265,0 L 0,0 Z m -0.94,0.866 4.205,0 c 3.97,0 6.711,-2.724 6.711,-6.278 l 0,-0.037 c 0,-3.554 -2.741,-6.315 -6.711,-6.315 l -4.205,0 0,12.63 z" style="fill:#ffffff;fill-opacity:1;fill-rule:nonzero;stroke:none" id="path30" inkscape:connector-curvature="0"></path></g><path d="m 44.427,14.56 0.938,0 0,-12.63 -0.938,0 0,12.63 z" style="fill:#ffffff;fill-opacity:1;fill-rule:nonzero;stroke:none" id="path32" inkscape:connector-curvature="0"></path><g id="g34" transform="translate(59.0086,6.3148)"><path d="M 0,0 -3.32,7.307 -6.657,0 0,0 Z m -3.752,8.335 0.901,0 5.883,-12.719 -1.029,0 -1.605,3.536 -7.451,0 -1.606,-3.536 -0.975,0 5.882,12.719 z" style="fill:#ffffff;fill-opacity:1;fill-rule:nonzero;stroke:none" id="path36" inkscape:connector-curvature="0"></path></g><g id="g38" transform="translate(71.5782,8.2099)"><path d="m 0,0 0,0.035 c 0,3.412 2.472,6.532 6.243,6.532 2.057,0 3.356,-0.614 4.618,-1.659 L 10.248,4.203 C 9.255,5.07 8.101,5.719 6.188,5.719 3.122,5.719 0.975,3.12 0.975,0.072 l 0,-0.037 c 0,-3.265 2.038,-5.701 5.412,-5.701 1.606,0 3.103,0.668 4.023,1.444 l 0,3.626 -4.222,0 0,0.866 5.125,0 0,-4.871 C 10.176,-5.611 8.407,-6.496 6.352,-6.496 2.364,-6.496 0,-3.554 0,0" style="fill:#ffffff;fill-opacity:1;fill-rule:nonzero;stroke:none" id="path40" inkscape:connector-curvature="0"></path></g><g id="g42" transform="translate(92.4072,8.0107)"><path d="m 0,0 c 2.11,0 3.681,1.065 3.681,2.888 l 0,0.035 c 0,1.696 -1.336,2.761 -3.626,2.761 l -4.312,0 L -4.257,0 0,0 Z m -5.197,6.549 5.305,0 C 1.659,6.549 2.905,6.063 3.662,5.305 4.257,4.709 4.619,3.861 4.619,2.96 l 0,-0.037 c 0,-2.11 -1.571,-3.32 -3.699,-3.609 l 4.168,-5.394 -1.19,0 -4.025,5.232 -4.13,0 0,-5.232 -0.94,0 0,12.629 z" style="fill:#ffffff;fill-opacity:1;fill-rule:nonzero;stroke:none" id="path44" inkscape:connector-curvature="0"></path></g><g id="g46" transform="translate(112.4049,8.2099)"><path d="m 0,0 0,0.035 c 0,3.122 -2.272,5.684 -5.395,5.684 -3.12,0 -5.357,-2.526 -5.357,-5.647 l 0,-0.037 c 0,-3.12 2.272,-5.683 5.394,-5.683 C -2.237,-5.648 0,-3.122 0,0 m -11.727,0 0,0.035 c 0,3.447 2.544,6.532 6.369,6.532 3.826,0 6.333,-3.048 6.333,-6.495 l 0,-0.037 c 0,-3.444 -2.544,-6.531 -6.37,-6.531 -3.823,0 -6.332,3.049 -6.332,6.496" style="fill:#ffffff;fill-opacity:1;fill-rule:nonzero;stroke:none" id="path48" inkscape:connector-curvature="0"></path></g><g id="g50" transform="translate(117.3763,7.1804)"><path d="m 0,0 0,7.38 0.938,0 0,-7.288 c 0,-2.978 1.606,-4.691 4.277,-4.691 2.561,0 4.203,1.551 4.203,4.599 l 0,7.38 0.937,0 0,-7.271 c 0,-3.626 -2.11,-5.556 -5.177,-5.556 C 2.147,-5.447 0,-3.535 0,0" style="fill:#ffffff;fill-opacity:1;fill-rule:nonzero;stroke:none" id="path52" inkscape:connector-curvature="0"></path></g><g id="g54" transform="translate(137.107,7.5065)"><path d="m 0,0 c 2.345,0 3.933,1.227 3.933,3.103 l 0,0.035 c 0,2.003 -1.553,3.05 -3.825,3.05 l -3.572,0 L -3.464,0 0,0 Z m -4.404,7.053 4.584,0 c 2.778,0 4.691,-1.424 4.691,-3.86 l 0,-0.036 c 0,-2.653 -2.292,-4.024 -4.926,-4.024 l -3.409,0 0,-4.709 -0.94,0 0,12.629 z" style="fill:#ffffff;fill-opacity:1;fill-rule:nonzero;stroke:none" id="path56" inkscape:connector-curvature="0"></path></g><g id="g58" transform="translate(143.3177,0.4513)"><path d="m 0,0 c 0.777,0.397 1.065,0.793 1.012,1.479 l -0.488,0 0,1.534 1.191,0 0,-1.335 c 0,-1.119 -0.416,-1.713 -1.498,-2.129 L 0,0 Z" style="fill:#ffffff;fill-opacity:1;fill-rule:nonzero;stroke:none" id="path60" inkscape:connector-curvature="0"></path></g><path d="m 156.099,14.56 0.938,0 0,-12.63 -0.938,0 0,12.63 z" style="fill:#ffffff;fill-opacity:1;fill-rule:nonzero;stroke:none" id="path62" inkscape:connector-curvature="0"></path><g id="g64" transform="translate(162.2903,14.56)"><path d="m 0,0 0.885,0 8.714,-10.987 0,10.987 0.903,0 0,-12.63 -0.704,0 -8.895,11.223 0,-11.223 L 0,-12.63 0,0 Z" style="fill:#ffffff;fill-opacity:1;fill-rule:nonzero;stroke:none" id="path66" inkscape:connector-curvature="0"></path></g><g id="g68" transform="translate(177.3104,8.2099)"><path d="m 0,0 0,0.035 c 0,3.574 2.671,6.532 6.315,6.532 2.255,0 3.608,-0.83 4.908,-2.02 L 10.555,3.861 C 9.455,4.926 8.192,5.719 6.297,5.719 3.267,5.719 0.975,3.247 0.975,0.072 l 0,-0.037 c 0,-3.192 2.327,-5.683 5.34,-5.683 1.823,0 3.067,0.705 4.349,1.967 l 0.631,-0.613 C 9.959,-5.611 8.517,-6.496 6.28,-6.496 2.671,-6.496 0,-3.626 0,0" style="fill:#ffffff;fill-opacity:1;fill-rule:nonzero;stroke:none" id="path70" inkscape:connector-curvature="0"></path></g><g id="g72" transform="translate(14.2327,91.5428)"><path d="m 0,0 8.088,0 c 2.51,0 4.509,0.349 5.997,1.045 1.485,0.699 2.626,1.695 3.418,2.999 0.787,1.301 1.325,2.905 1.602,4.812 0.279,1.905 0.419,4.114 0.419,6.624 0,2.512 -0.14,4.719 -0.419,6.626 -0.277,1.904 -0.859,3.531 -1.742,4.88 -0.885,1.347 -2.116,2.347 -3.697,2.999 -1.581,0.65 -3.674,0.977 -6.274,0.977 L 0,30.962 0,0 Z m -14.227,44.35 22.874,0 c 16.734,0 25.101,-9.717 25.101,-29.15 0,-5.764 -0.905,-10.716 -2.719,-14.851 -1.813,-4.139 -4.998,-7.461 -9.552,-9.971 l 15.34,-45.326 -15.061,0 -13.249,42.397 -8.507,0 0,-42.397 -14.227,0 0,99.298 z" style="fill:#ffffff;fill-opacity:1;fill-rule:nonzero;stroke:none" id="path74" inkscape:connector-curvature="0"></path></g><g id="g76" transform="translate(191.4542,107.8383)"><path d="m 0,0 -14.225,0 0,3.208 c 0,3.254 -0.768,6.067 -2.302,8.438 -1.535,2.37 -4.114,3.557 -7.741,3.557 -1.951,0 -3.555,-0.373 -4.81,-1.117 -1.255,-0.745 -2.233,-1.697 -2.929,-2.859 -0.698,-1.163 -1.185,-2.509 -1.464,-4.044 -0.28,-1.534 -0.42,-3.138 -0.42,-4.813 0,-1.951 0.07,-3.604 0.21,-4.95 0.14,-1.35 0.489,-2.509 1.045,-3.487 0.559,-0.976 1.372,-1.837 2.44,-2.58 1.069,-0.745 2.533,-1.487 4.393,-2.23 l 10.88,-4.323 c 3.159,-1.211 5.718,-2.629 7.671,-4.256 1.951,-1.627 3.462,-3.534 4.533,-5.718 1.066,-2.184 1.788,-4.696 2.16,-7.529 0.37,-2.838 0.559,-6.067 0.559,-9.694 0,-4.184 -0.419,-8.067 -1.255,-11.646 -0.838,-3.58 -2.212,-6.647 -4.116,-9.203 -1.907,-2.558 -4.44,-4.582 -7.599,-6.067 -3.162,-1.488 -7.022,-2.233 -11.575,-2.233 -3.441,0 -6.65,0.608 -9.625,1.814 -2.975,1.208 -5.532,2.859 -7.669,4.952 -2.142,2.091 -3.836,4.577 -5.091,7.462 -1.255,2.879 -1.884,5.994 -1.884,9.342 l 0,5.299 14.227,0 0,-4.461 c 0,-2.605 0.766,-4.951 2.301,-7.044 1.534,-2.091 4.113,-3.136 7.741,-3.136 2.416,0 4.297,0.346 5.648,1.045 1.345,0.696 2.37,1.674 3.068,2.929 0.696,1.255 1.136,2.81 1.325,4.672 0.184,1.858 0.279,3.904 0.279,6.135 0,2.603 -0.095,4.742 -0.279,6.416 -0.189,1.674 -0.582,3.02 -1.185,4.044 -0.608,1.022 -1.444,1.86 -2.512,2.51 -1.069,0.649 -2.489,1.348 -4.254,2.093 l -10.181,4.183 c -6.137,2.51 -10.25,5.835 -12.341,9.972 -2.093,4.137 -3.138,9.322 -3.138,15.552 0,3.717 0.51,7.252 1.534,10.598 1.022,3.347 2.531,6.228 4.533,8.647 1.997,2.417 4.533,4.346 7.599,5.788 3.068,1.441 6.647,2.161 10.739,2.161 3.532,0 6.764,-0.651 9.692,-1.952 2.929,-1.303 5.441,-3.023 7.532,-5.16 2.093,-2.139 3.697,-4.533 4.812,-7.182 C -0.559,12.482 0,9.763 0,6.974 L 0,0 Z" style="fill:#ffffff;fill-opacity:1;fill-rule:nonzero;stroke:none" id="path78" inkscape:connector-curvature="0"></path></g><g id="g80" transform="translate(78.5612,94.4599)"><path d="m 0,0 18.178,-27.416 17.582,27.118 0,-33.038 14.206,0 0,74.768 -31.788,-43.816 -32.366,43.816 0,-74.768 14.221,0 L 0,0 Z" style="fill:#ffffff;fill-opacity:1;fill-rule:nonzero;stroke:none" id="path82" inkscape:connector-curvature="0"></path></g><path d="m 64.274,36.815 64.432,0 0,14.225 -64.432,0 0,-14.225 z" style="fill:#e3c77b;fill-opacity:1;fill-rule:nonzero;stroke:none" id="path84" inkscape:connector-curvature="0"></path><g id="g86" transform="translate(106.6884,132.7267)"><path d="M 0,0 -10.477,16.259 -21.331,0 -10.477,-16.308 0,0 Z" style="fill:#e3c77b;fill-opacity:1;fill-rule:nonzero;stroke:none" id="path88" inkscape:connector-curvature="0"></path></g></g></g></g></svg>