<svg width="97" height="30" viewBox="0 0 97 30" fill="none" xmlns="http://www.w3.org/2000/svg">
<g clip-path="url(#clip0_1356_1410)">
<path d="M21.0409 4.74065L3.9082 11.8945L5.24521 15.1034L22.3779 7.94956L21.0409 4.74065Z" fill="black"/>
<path d="M15.5087 0.000398328L0 8.95605L1.73538 11.9678L17.2441 3.01213L15.5087 0.000398328Z" fill="black"/>
<path d="M1.33801 24.5415L18.4707 17.3877L17.1337 14.1788L0.00101656 21.3326L1.33801 24.5415Z" fill="black"/>
<path d="M6.86827 29.2829L22.377 20.3271L20.6416 17.3154L5.13288 26.2711L6.86827 29.2829Z" fill="black"/>
<path d="M36.5737 22.2197H36.5527C34.433 22.2197 32.7415 21.6506 31.4782 20.5123C30.2288 19.36 29.6112 17.8774 29.6252 16.0647H32.6994C32.6854 17.2451 33.0293 18.1796 33.7312 18.8681C34.433 19.5427 35.3946 19.8799 36.6159 19.8799C37.6124 19.8799 38.3985 19.6551 38.9741 19.2054C39.5636 18.7557 39.8584 18.1515 39.8584 17.3926C39.8584 16.2544 39.1215 15.5799 37.6475 15.3691L34.9524 14.9897C32.2713 14.6103 30.9307 13.3596 30.9307 11.2376C30.9307 9.9448 31.3869 8.92598 32.2994 8.18119C33.2118 7.42239 34.4611 7.04297 36.0473 7.04297C37.6054 7.04297 38.8688 7.40834 39.8374 8.13903C40.82 8.85572 41.3674 9.83238 41.4797 11.069L38.574 11.0901C38.4617 10.4999 38.1739 10.0432 37.7107 9.71996C37.2615 9.39674 36.6931 9.23514 36.0052 9.23514C35.3034 9.23514 34.7419 9.39674 34.3207 9.71996C33.8996 10.0432 33.6891 10.4647 33.6891 10.9847C33.6891 11.4344 33.8505 11.7927 34.1734 12.0597C34.4962 12.3127 35.0086 12.4883 35.7104 12.5867L38.2371 12.924C41.199 13.3315 42.6799 14.7648 42.6799 17.224C42.6799 18.7417 42.1325 19.9572 41.0376 20.8706C39.9426 21.77 38.4547 22.2197 36.5737 22.2197Z" fill="black"/>
<path d="M50.2353 19.9436L50.1932 19.9858C50.895 19.9858 51.5337 19.8663 52.1092 19.6274V21.8196C51.3653 22.1007 50.4809 22.2412 49.4562 22.2412C48.249 22.2412 47.3155 21.8969 46.6557 21.2083C46.01 20.5198 45.6872 19.5853 45.6872 18.4048V13.6832H43.75V11.7229L44.4238 11.6807C45.3924 11.6245 45.9047 11.0413 45.9609 9.93118L46.0451 8.43457H48.2981V11.4699H51.7933V13.6621H48.2981V18.2151C48.2981 19.3674 48.9438 19.9436 50.2353 19.9436Z" fill="black"/>
<path d="M62.224 11.4701L64.8559 11.4491V21.9885H62.224V19.9016H62.1819C61.8309 20.6324 61.3186 21.2015 60.6448 21.609C59.985 22.0025 59.22 22.1993 58.3496 22.1993C56.8757 22.1993 55.6404 21.6793 54.6438 20.6394C53.6611 19.5995 53.1699 18.2997 53.1699 16.7398C53.1699 15.166 53.6611 13.8591 54.6438 12.8192C55.6404 11.7653 56.8757 11.2383 58.3496 11.2383C59.22 11.2383 59.985 11.442 60.6448 11.8496C61.3186 12.2571 61.8309 12.8262 62.1819 13.557H62.224V11.4701ZM59.1077 19.9438V19.9227C60.0482 19.9227 60.8202 19.6206 61.4238 19.0163C62.0274 18.4121 62.3292 17.6462 62.3292 16.7187C62.3292 15.7913 62.0274 15.0255 61.4238 14.4212C60.8202 13.8169 60.0482 13.5148 59.1077 13.5148C58.1672 13.5148 57.3951 13.8169 56.7915 14.4212C56.1879 15.0255 55.8861 15.7913 55.8861 16.7187C55.8861 17.6603 56.1879 18.4331 56.7915 19.0374C57.3951 19.6417 58.1672 19.9438 59.1077 19.9438Z" fill="black"/>
<path d="M73.557 11.2594L73.536 11.2383C73.7184 11.2383 73.8518 11.2453 73.936 11.2594V13.8732H73.4096C71.1777 13.8732 70.0617 15.2292 70.0617 17.9413V22.0095H67.4297V11.4701H69.9564V14.5688H69.9775C70.5109 12.3625 71.7041 11.2594 73.557 11.2594Z" fill="black"/>
<path d="M81.0888 16.6973L85.7843 22.0302H82.5202L78.5198 17.2242H78.4777V22.0302H75.8457V6.85352H78.4777V16.2336H78.5198L82.3727 11.4698H85.5524L81.0888 16.6973Z" fill="black"/>
<path d="M91.4172 22.2198H91.3967C89.81 22.2198 88.5119 21.8263 87.5009 21.0393C86.4907 20.2383 85.971 19.1844 85.9434 17.8775H88.6381C88.6523 18.5661 88.9117 19.1212 89.4172 19.5427C89.9369 19.9503 90.6175 20.154 91.4597 20.154C92.1332 20.154 92.6742 20.0205 93.0811 19.7535C93.4881 19.4865 93.6915 19.1282 93.6915 18.6785C93.6915 18.0602 93.2633 17.6948 92.4069 17.5824L89.9645 17.2873C87.8731 17.0203 86.8274 16.1069 86.8274 14.5471C86.8274 13.5494 87.213 12.7554 87.9851 12.1652C88.7572 11.5609 89.8029 11.2588 91.123 11.2588C92.4424 11.2588 93.4881 11.5258 94.2601 12.0598C95.0322 12.5797 95.488 13.3245 95.6284 14.2942H92.955C92.7302 13.5634 92.119 13.1981 91.123 13.1981C90.6033 13.1981 90.1893 13.3034 89.8801 13.5142C89.5718 13.725 89.4172 14.0201 89.4172 14.3996C89.4172 14.9617 89.8312 15.2989 90.6593 15.4113L93.0811 15.7064C95.2427 15.9734 96.3232 16.9149 96.3232 18.5309C96.3232 19.6411 95.8744 20.5334 94.9762 21.208C94.078 21.8825 92.8911 22.2198 91.4172 22.2198Z" fill="black"/>
</g>
<defs>
<clipPath id="clip0_1356_1410">
<rect width="97" height="30" fill="white"/>
</clipPath>
</defs>
</svg>
